<svg version="1.1"
      xmlns="http://www.w3.org/2000/svg"
      xmlns:xlink="http://www.w3.org/1999/xlink"  id="snapshot-33491" width="250" height="250" viewBox="0 0 250 250"><desc>This image was made on Patterninja.com</desc><defs>
<!-- image 91346 -->
<g id="transformed-91346" data-image="91346" transform="translate(65.74059330077404, 142.74059330077398) rotate(334, 23.259406699225956, 23.259406699226016)"><g><svg version="1.1" width="46.51881339845191px" height="46.51881339845203px" viewBox="0 0 46.51881339845191 46.51881339845203"><g id="original-91346"><svg xmlns="http://www.w3.org/2000/svg" viewBox="0 0 1000 1000" xmlns:xlink="http://www.w3.org/1999/xlink" version="1.1" preserveAspectRatio="xMidYMid meet">
  <path d="M551.81 12.11c-75.01 7.65-152.7 39.8-211.06 87.45-82.28 67.36-134.52 165.14-144.85 271.91-1.15 11.67-1.91 94.91-1.91 205.51v185.99l-90.7 90.89c-98.17 98.16-95.3 94.91-92.24 112.13 1.72 8.99 13.97 21.24 22.96 22.96 17.22 3.06 13.97 5.93 112.13-92.23l90.89-90.7h185.99c112.51 0 193.65-.77 205.51-1.91 67.17-6.7 129.54-28.7 184.27-65.44 43.05-28.7 83.05-69.08 111.37-111.94 35.59-54.15 57.41-115.96 63.91-182.17 1.15-12.06 1.91-99.89 1.91-227.13V10l-210.87.19c-116.14.19-218.32 1.15-227.31 1.92zm376.96 236.12c0 112.71-.77 183.89-2.1 195.75-8.62 79.41-42.68 149.07-100.47 205.32-55.11 53.58-121.7 84.96-198.81 93.57-10.33 1.15-88.79 1.91-194.79 1.91H255.02l.77-189.05c.77-205.7.38-197.28 12.06-238.61 33.29-118.06 129.54-209.91 248.56-237.47 33.49-7.65 43.63-8.04 231.15-8.23l181.21-.19v177z" fill="rgba(11, 171, 64, 1)" stroke="none"/>
  <path d="M824.48 135.53c-3.06 1.53-49.94 46.88-103.71 100.84l-98.16 97.97v-58.17c0-64.68-.38-66.59-13.01-76.35-9.76-7.46-25.45-7.46-35.21 0-13.2 10.14-13.01 8.23-13.01 107.16v88.6l-61.24 61.22-61.23 61.24v-88.79c0-98.74.19-96.82-13.01-106.96-9.76-7.46-25.45-7.46-35.21 0-13.59 10.33-13.01 4.97-13.01 137.58v119.21l-29.47 29.85c-31.57 31.96-33.87 35.59-31 50.9 1.72 8.99 13.97 21.24 22.96 22.96 15.31 2.87 18.94.58 50.9-31l29.85-29.47h119.21c132.61 0 127.25.57 137.58-13.01 7.46-9.76 7.46-25.45 0-35.21-10.14-13.2-8.23-13.01-106.96-13.01h-88.79l61.24-61.23 61.23-61.23h88.59c98.93 0 97.01.19 107.16-13.01 7.46-9.76 7.46-25.45 0-35.21-9.76-12.63-11.67-13.01-76.35-13.01h-58.17l99.88-100.08c107.35-107.54 104.48-104.1 101.22-120.36-3.63-18.37-26.01-29.85-42.28-21.43z" fill="rgba(4, 142, 58, 1)" stroke="none"/>
</svg>
</g></svg></g></g>
<!-- /image 91346 -->

<!-- image 63307 -->
<g id="transformed-63307" data-image="63307" transform="translate(-27.944410108488462, 28.055589891511545) rotate(32, 44.94441010848846, 44.944410108488455)"><g><svg version="1.1" width="89.88882021697692px" height="89.88882021697691px" viewBox="0 0 89.88882021697692 89.88882021697691"><g id="original-63307"><svg xmlns="http://www.w3.org/2000/svg" viewBox="0 0 1000 1000" xmlns:xlink="http://www.w3.org/1999/xlink" version="1.1" preserveAspectRatio="xMidYMid meet">
  <path d="M601.07 11.29C549.09 17.3 502.93 44.46 462 93.33c-18.81 22.3-38.79 52.76-49.46 74.87-4.65 9.5-8.92 17.26-9.5 17.26-.78.19-1.94-5.62-2.72-12.61-5.24-49.27-23.08-99.5-40.73-115.02-7.37-6.4-12.22-7.37-19.01-3.68-11.64 6.01-12.03 16.1-1.55 30.26 16.87 22.31 28.12 69.24 33.17 138.1.97 14.35 1.94 29.48 1.94 33.36v7.37h-8.92c-11.83 0-46.16 5.04-66.72 9.89-95.43 22.3-180.77 82.24-233.72 164.28-12.03 18.81-30.26 57.21-37.44 78.94-28.51 86.5-21.53 185.81 18.43 265.53 77.39 154 254.28 236.82 426.32 199.58 29.29-6.4 31.61-6.4 61.68 0 169.52 36.27 345.63-51.98 420.3-210.44 56.63-120.45 45.77-262.82-28.71-374.15-23.66-35.11-32.78-42.67-44.22-36.08-2.33 1.36-34.91 28.12-72.35 59.54-37.63 31.42-68.85 57.41-69.82 57.8-.78.19-3.49-4.07-6.21-9.7-12.03-25.99-36.66-61.1-60.9-86.7-62.84-66.52-156.13-110.93-247.49-117.72-15.9-1.16-17.26-1.55-17.26-5.43 0-4.07 10.09-11.06 31.03-21.53 27.93-14.16 82.04-24.44 151.29-29.09 48.1-3.1 82.43-15.52 119.28-42.28 19.4-14.35 50.82-46.36 65.36-66.53 14.55-20.56 31.23-49.46 29.29-51.4-.78-.78-9.89-4.46-20.17-8.34-63.81-23.66-130.73-33.94-182.12-28.12zm87.28 36.85c24.63 4.07 65.36 14.74 67.11 17.46 1.55 2.52-22.5 32.97-39.18 49.46-24.83 25.21-49.85 41.12-79.52 51.01-14.55 4.85-24.05 6.59-52.37 8.92-67.69 5.63-103.96 11.64-132.86 21.34-7.76 2.72-14.74 4.85-15.71 4.85-2.13 0 12.03-27.93 23.66-46.94 34.72-55.66 74.67-91.35 117.34-104.15 28.32-8.55 68.27-9.32 111.53-1.95zm-314.21 276v27.93l6.21 5.24c6.98 6.01 15.32 5.62 21.92-.97 3.49-3.49 3.88-6.98 4.46-32.39l.78-28.32 15.71 1.36c21.72 1.75 58.77 9.5 81.07 16.68 24.05 7.95 64.39 27.74 86.12 42.48 35.88 24.05 68.08 56.25 92.32 92.32 13.37 19.78 29.47 50.62 27.92 53.33-.58.97-89.61 76.22-198.03 167-131.69 110.55-197.06 166.6-197.83 169.71-2.13 8.15.78 13 17.65 31.23 26.77 28.71 62.45 56.05 98.14 75.06l15.52 8.34-8.34 1.16c-33.75 5.04-84.37 3.1-120.83-4.46C144.69 914.35 26.37 759.37 44.61 593.35 58.96 462.81 152.83 351.68 282.4 311.92c27.15-8.34 60.9-14.74 82.62-15.32l9.12-.39v27.93zm523.68 90.77c75.45 112.69 78.75 262.03 7.95 375.89-51.4 82.82-130.92 138.1-228.29 159.04-27.35 6.01-86.5 7.57-116.38 3.1-70.6-10.28-131.5-38.98-185.03-86.89-11.25-10.09-20.37-19.2-20.37-20.37 0-.97 5.24-6.4 11.64-11.64l11.44-9.7 19.59 17.26c43.64 38.79 91.35 63.23 147.79 75.45 23.86 5.04 79.91 7.18 103.77 3.88 50.43-7.17 97.56-25.41 140.42-54.69 23.47-15.9 63.23-56.63 79.91-81.85 39.76-59.74 57.6-127.82 52.56-199.19-3.88-52.95-22.11-106.48-51.01-149.15l-10.86-16.49 7.18-5.82c4.07-3.3 9.5-7.95 12.22-10.28 2.72-2.33 5.24-4.27 5.82-4.46.59 0 5.83 7.18 11.65 15.91zm-45.58 51.98c8.15 14.16 20.95 40.73 19.98 41.7-.58.58-144.5 46.16-174.95 55.47-8.92 2.72-10.86 2.91-8.73.78 1.55-1.55 35.11-29.87 74.48-63.04l71.76-60.13 4.46 5.24c2.33 3.1 8.15 12.03 13 19.98zm31.81 80.88c7.56 26.77 7.56 90.19.39 121.22-4.27 18.62-14.74 49.84-17.46 52.56-1.16 1.16-35.69-15.91-88.83-43.25-47.71-24.83-87.08-45.39-87.47-45.58-.2-.2.19-7.57.97-16.49l1.55-16.1 93.1-29.68c51.21-16.1 93.68-29.48 94.46-29.68.77-.18 2.32 3.12 3.29 7zm-225.77 53.92c5.24 34.52-28.32 64.2-61.87 54.5-6.01-1.74-10.86-3.88-10.67-4.65 0-1.55 68.08-58.58 70.02-58.58.78 0 1.94 3.88 2.52 8.73zM786.88 720c34.33 17.84 62.45 33.55 62.45 34.72 0 4.85-20.37 31.42-37.82 49.46-23.08 23.86-45 40.15-75.45 55.47-13.58 6.98-25.21 12.41-25.79 12.03-2.13-2.33-60.32-190.46-58.96-191.05 3.88-1.36 19.4-14.55 20.37-17.26.97-2.33 6.21-.19 26.96 10.67 13.95 7.36 53.71 28.12 88.24 45.96zm-237.41-31.61c-11.83 23.66-82.82 159.82-83.98 160.98-1.75 1.94-33.56-21.33-47.91-35.11l-12.41-12.02 73.9-62.07c40.54-33.94 74.09-61.87 74.67-61.87.39 0-1.55 4.65-4.27 10.09zm68.86 4.65c1.16.97 59.74 187.94 59.16 188.72-2.33 2.91-30.45 6.4-57.99 7.37-27.93.77-36.46.39-56.25-2.91-21.34-3.69-54.11-13.19-64.39-18.62-3.88-2.13-2.71-4.85 41.7-89.99l45.77-87.67 15.52 1.16c8.72.78 16.09 1.55 16.48 1.94z" fill="rgba(149, 217, 90, 1)" stroke="none"/>
</svg>
</g></svg></g></g>
<!-- /image 63307 -->

<!-- image 12172 -->
<g id="transformed-12172" data-image="12172" transform="translate(-28.861739379323623, 125.13826062067638) rotate(255, 28.861739379323623, 28.86173937932362)"><g><svg version="1.1" width="57.723478758647246px" height="57.72347875864724px" viewBox="0 0 57.723478758647246 57.72347875864724"><g id="original-12172"><svg xmlns="http://www.w3.org/2000/svg" viewBox="0 0 1000 1000" xmlns:xlink="http://www.w3.org/1999/xlink" version="1.1" preserveAspectRatio="xMidYMid meet">
  <path d="M551.81 12.11c-75.01 7.65-152.7 39.8-211.06 87.45-82.28 67.36-134.52 165.14-144.85 271.91-1.15 11.67-1.91 94.91-1.91 205.51v185.99l-90.7 90.89c-98.17 98.16-95.3 94.91-92.24 112.13 1.72 8.99 13.97 21.24 22.96 22.96 17.22 3.06 13.97 5.93 112.13-92.23l90.89-90.7h185.99c112.51 0 193.65-.77 205.51-1.91 67.17-6.7 129.54-28.7 184.27-65.44 43.05-28.7 83.05-69.08 111.37-111.94 35.59-54.15 57.41-115.96 63.91-182.17 1.15-12.06 1.91-99.89 1.91-227.13V10l-210.87.19c-116.14.19-218.32 1.15-227.31 1.92zm376.96 236.12c0 112.71-.77 183.89-2.1 195.75-8.62 79.41-42.68 149.07-100.47 205.32-55.11 53.58-121.7 84.96-198.81 93.57-10.33 1.15-88.79 1.91-194.79 1.91H255.02l.77-189.05c.77-205.7.38-197.28 12.06-238.61 33.29-118.06 129.54-209.91 248.56-237.47 33.49-7.65 43.63-8.04 231.15-8.23l181.21-.19v177z" fill="rgba(11, 171, 64, 1)" stroke="none"/>
  <path d="M824.48 135.53c-3.06 1.53-49.94 46.88-103.71 100.84l-98.16 97.97v-58.17c0-64.68-.38-66.59-13.01-76.35-9.76-7.46-25.45-7.46-35.21 0-13.2 10.14-13.01 8.23-13.01 107.16v88.6l-61.24 61.22-61.23 61.24v-88.79c0-98.74.19-96.82-13.01-106.96-9.76-7.46-25.45-7.46-35.21 0-13.59 10.33-13.01 4.97-13.01 137.58v119.21l-29.47 29.85c-31.57 31.96-33.87 35.59-31 50.9 1.72 8.99 13.97 21.24 22.96 22.96 15.31 2.87 18.94.58 50.9-31l29.85-29.47h119.21c132.61 0 127.25.57 137.58-13.01 7.46-9.76 7.46-25.45 0-35.21-10.14-13.2-8.23-13.01-106.96-13.01h-88.79l61.24-61.23 61.23-61.23h88.59c98.93 0 97.01.19 107.16-13.01 7.46-9.76 7.46-25.45 0-35.21-9.76-12.63-11.67-13.01-76.35-13.01h-58.17l99.88-100.08c107.35-107.54 104.48-104.1 101.22-120.36-3.63-18.37-26.01-29.85-42.28-21.43z" fill="rgba(4, 142, 58, 1)" stroke="none"/>
</svg>
</g></svg></g></g>
<!-- /image 12172 -->

<!-- image 48128 -->
<g id="transformed-48128" data-image="48128" transform="translate(116.20784389125772, 70.20784389125777) rotate(11, 40.792156108742276, 40.79215610874224)"><g><svg version="1.1" width="81.58431221748455px" height="81.58431221748448px" viewBox="0 0 81.58431221748455 81.58431221748448"><g id="original-48128"><svg xmlns="http://www.w3.org/2000/svg" viewBox="0 0 1000 1000" xmlns:xlink="http://www.w3.org/1999/xlink" version="1.1" preserveAspectRatio="xMidYMid meet">
  <path d="M616.02 97.26c-29.89 12.67-46.33 45.14-38.8 76.42 2.57 10.49 2.57 10.49-3.17 14.65-10.49 7.72-41.18 34.05-57.81 49.69L500 253.27l-13.66-12.67c-77.61-73.25-157.79-124.92-212.83-137.2-23.16-5.15-50.09-3.56-65.14 3.96-29.7 14.85-42.37 42.96-40.39 90.08 1.78 39.4 14.25 85.33 38.21 139.97 5.94 13.66 10.49 25.34 10.1 25.74-.59.4-12.28 3.76-26.33 7.52-77.41 20.39-137.4 50.48-161.35 80.58C14.55 469.07 10 480.75 10 500.35c0 14.65.79 18.41 6.14 29.7 19.2 40.59 79.98 75.83 173.03 100.38 14.65 3.76 26.93 7.13 27.32 7.52.4.2-4.75 13.07-11.28 28.11-24.15 56.82-35.44 98-37.22 137.2-1.58 37.62 4.36 57.81 22.37 77.21 21.38 22.96 55.63 26.92 101.36 11.68 52.07-17.22 127.9-68.3 190.66-127.9 8.31-7.92 16.23-14.45 17.42-14.45 1.39 0 11.48 8.32 22.57 18.61s29.1 25.94 39.99 34.65l19.6 16.04.2 21.19c0 18.61.59 22.77 4.75 31.08 6.14 12.47 17.03 23.36 30.29 30.29 9.11 4.75 12.67 5.54 28.31 5.54 15.44 0 19.2-.79 28.9-5.35 5.94-2.97 12.87-7.52 15.24-10.1l4.36-4.55 17.22 5.94c15.64 5.34 20 5.94 43.16 5.94 24.15.2 26.33-.2 36.82-5.35 6.14-2.97 14.85-9.3 19.2-14.06 17.42-18.81 23.16-39.6 21.38-76.42-1.78-39.2-13.46-82.36-36.23-134.43-14.85-34.05-14.45-30.88-2.38-33.86 10.3-2.57 10.3-2.57 14.45 3.17 6.93 9.9 15.64 17.03 26.92 22.37 8.91 4.16 13.86 5.15 26.73 5.15 14.06 0 17.62-.79 29.1-6.53 23.56-11.48 36.03-31.48 36.23-58.4l.2-15.64 13.07-8.71c17.03-11.48 37.22-33.06 44.35-47.51 4.95-10.1 5.74-14.06 5.74-28.51 0-14.06-.79-18.61-5.15-27.72-20-42.37-78.6-76.62-174.82-101.96-14.06-3.76-25.93-7.13-26.33-7.72-.59-.4 2.57-8.71 6.93-18.41 41.97-93.64 52.86-168.08 30.69-209.07-18.61-34.05-59.59-43.95-111.07-26.73l-20.19 6.73-5.35-5.54c-15.41-16.23-46.69-21.97-68.66-12.67zm-344.88 36.23c46.92 11.68 127.1 64.15 192.24 125.91l15.05 14.25-29.1 31.28c-16.04 17.03-31.08 31.48-33.26 31.88-2.38.59-18.41 1.78-35.83 3.17-31.88 2.18-90.87 9.5-117.4 14.45-10.3 1.98-14.65 2.18-15.84.59-3.37-4.36-20.19-44.15-28.11-65.93-19.2-54.05-25.94-98.79-18.81-126.11 8.1-30.87 29.48-39.78 71.06-29.49zm507.81.2c30.69 15.64 31.48 72.86 2.18 155.41-7.92 21.78-24.75 61.57-28.11 65.93-1.19 1.58-5.35 1.39-15.24-.4-34.65-6.53-97.21-13.86-146.7-17.22-10.49-.59-11.48-1.19-20.79-11.48-5.54-5.94-18.81-19.8-29.5-31.08l-19.8-20.19 7.92-8.12c8.51-8.71 38.61-35.24 56.82-49.89l11.29-9.11 8.91 5.54c20.19 12.87 45.14 13.46 66.72 1.78 22.37-12.27 34.05-33.46 33.06-59.99-.2-7.13 0-13.27.39-13.66.6-.59 8.52-3.17 17.62-5.94 20.98-6.13 45.14-6.92 55.23-1.58zM519.6 314.45c9.9 10.69 18.02 19.6 18.02 19.8 0 .4-16.83.79-37.62.79-20.59 0-37.62-.2-37.62-.59 0-1.78 36.63-39.99 37.81-39.6.8.39 9.51 9.1 19.41 19.6zm38.21 50.88c8.91 1.39 9.9 2.38 27.32 23.16 20 23.76 58.6 74.84 74.05 97.41l9.7 14.45-9.11 13.66c-13.46 20.2-55.24 75.23-75.43 99.78-13.86 16.43-19.2 21.38-23.76 22.17-3.36.79-33.06.99-66.12.59l-59.99-.59-5.94-6.93c-30.69-36.62-66.72-83.35-86.32-112.25l-11.28-16.43 9.9-14.25c15.84-23.36 54.44-74.24 73.85-97.6 17.62-20.99 18.61-21.78 27.52-22.97 12.86-1.59 104.33-1.79 115.61-.2zm-173.63 13.66c-14.25 17.82-61.77 80.97-65.73 87.7-1.78 3.17-3.96 5.94-4.75 5.94-2.77 0-51.28-82.56-51.28-86.91 0-1.98 43.16-9.11 79.39-13.07 33.85-3.76 39.2-4.16 45.93-4.55l5.74-.4-9.3 11.29zm275.19-6.14c35.83 3.96 78.2 10.89 78.2 12.87 0 4.35-48.7 86.91-51.08 86.91-.79-.2-7.92-9.7-16.04-21.18-8.12-11.68-24.15-33.06-35.64-47.71-11.48-14.65-22.77-28.91-24.75-31.48l-3.76-4.95 13.66 1.39c7.54.59 25.36 2.57 39.41 4.15zm-412.78 45.73c8.12 15.05 22.57 39.6 31.88 54.64l17.03 27.32-17.42 28.11c-9.7 15.44-23.96 39.79-31.88 54.25-9.5 17.03-15.64 26.33-17.62 26.33-5.34 0-40.59-9.5-64.15-17.22-68.9-22.57-113.25-50.88-123.54-78.4-15.05-40.19 43.15-82.95 155.21-114.23 15.24-4.16 29.5-7.72 31.68-7.72 2.97 0 7.32 6.14 18.81 26.92zm557.11-19.2c69.49 19.2 116.41 41.77 141.56 68.1 11.68 12.67 16.04 21.38 16.04 32.87 0 16.63-9.11 30.09-32.47 47.71l-15.64 11.88-7.13-6.73c-13.26-12.87-22.57-16.24-43.75-16.24-15.04 0-20.59.79-27.91 4.16-20.59 9.7-34.65 28.71-37.02 50.88l-1.39 12.08-9.9 2.57c-17.42 4.36-16.43 5.15-32.67-24.55-8.12-14.65-22.57-39.2-31.87-54.25l-17.22-27.32 14.06-22.37c16.04-25.54 48.9-82.95 48.9-85.13-.02-2.97 7.11-1.58 36.41 6.34zM331.32 551.82c14.25 20.19 38.41 52.07 56.82 74.64l5.15 6.53h-5.54c-16.63 0-122.35-14.26-124.92-16.83-1.98-1.78 48.11-88.3 50.68-87.9.79.01 8.9 10.7 17.81 23.56zm372.2 2.38c20 33.46 34.85 60.98 33.46 62.17-2.18 2.38-76.03 12.47-115.03 15.84l-15.84 1.38 9.5-11.68c10.29-12.67 51.08-66.72 63.15-83.55 3.96-5.54 7.72-10.29 8.12-10.29.41 0 7.93 11.88 16.64 26.13zm-420.9 95.62c34.05 5.35 73.05 9.9 111.46 12.87l25.74 1.78 9.9 10.69c5.54 5.94 18.61 20.2 29.3 31.68l19.6 20.99-12.67 11.68c-68.5 64.15-136.21 109.48-187.68 126.11-12.67 4.16-20.99 5.54-33.66 5.74-18.41 0-24.55-2.18-34.05-12.08-16.83-17.62-17.62-57.02-2.38-113.04 10.49-38.41 36.43-101.37 41.58-101.37 1.38 0 16.23 2.18 32.86 4.95zm477.72 11.29c35.04 76.62 49.49 145.71 38.61 182.73-3.76 12.47-16.43 23.76-29.89 26.53-12.47 2.57-30.09.59-47.91-5.35l-10.29-3.37v-17.82c0-21.18-3.96-31.28-17.03-45.54-12.28-13.27-25.14-19.21-43.75-20.39-17.42-.99-28.31 1.98-41.97 11.29l-8.91 6.14-17.42-14.26c-19.6-15.84-29.5-24.55-47.71-41.77l-12.28-11.68 17.22-18.81c9.7-10.49 22.77-24.55 29.3-31.68l11.88-12.67 25.74-1.78c38.41-2.97 79.79-7.72 109.88-12.87 39.78-6.72 35.82-7.71 44.53 11.3zM519.8 686.45c-10.1 10.89-19.01 19.8-19.8 19.8s-9.7-8.91-19.8-19.8l-18.21-19.8h76.02l-18.21 19.8z" fill="rgba(215, 217, 33, 1)" stroke="none"/>
  <path d="M484.16 403.34c-42.76 7.72-74.84 40.59-81.37 83.35-9.9 63.95 48.51 121.56 112.45 110.87 64.14-10.89 100.77-79 74.04-137.4-15.24-33.66-45.34-54.44-83.35-57.41-7.12-.6-16.82-.4-21.77.59z" fill="rgba(215, 217, 33, 1)" stroke="none"/>
</svg>
</g></svg></g></g>
<!-- /image 48128 -->

<!-- image 38196 -->
<g id="transformed-38196" data-image="38196" transform="translate(65.44613532163872, 58.44613532163873) rotate(300, 25.553864678361276, 25.553864678361272)"><g><svg version="1.1" width="51.10772935672255px" height="51.107729356722544px" viewBox="0 0 51.10772935672255 51.107729356722544"><g id="original-38196"><svg xmlns="http://www.w3.org/2000/svg" viewBox="0 0 1000 1000" xmlns:xlink="http://www.w3.org/1999/xlink" version="1.1" preserveAspectRatio="xMidYMid meet">
  <path d="M551.81 12.11c-75.01 7.65-152.7 39.8-211.06 87.45-82.28 67.36-134.52 165.14-144.85 271.91-1.15 11.67-1.91 94.91-1.91 205.51v185.99l-90.7 90.89c-98.17 98.16-95.3 94.91-92.24 112.13 1.72 8.99 13.97 21.24 22.96 22.96 17.22 3.06 13.97 5.93 112.13-92.23l90.89-90.7h185.99c112.51 0 193.65-.77 205.51-1.91 67.17-6.7 129.54-28.7 184.27-65.44 43.05-28.7 83.05-69.08 111.37-111.94 35.59-54.15 57.41-115.96 63.91-182.17 1.15-12.06 1.91-99.89 1.91-227.13V10l-210.87.19c-116.14.19-218.32 1.15-227.31 1.92zm376.96 236.12c0 112.71-.77 183.89-2.1 195.75-8.62 79.41-42.68 149.07-100.47 205.32-55.11 53.58-121.7 84.96-198.81 93.57-10.33 1.15-88.79 1.91-194.79 1.91H255.02l.77-189.05c.77-205.7.38-197.28 12.06-238.61 33.29-118.06 129.54-209.91 248.56-237.47 33.49-7.65 43.63-8.04 231.15-8.23l181.21-.19v177z" fill="rgba(11, 171, 64, 1)" stroke="none"/>
  <path d="M824.48 135.53c-3.06 1.53-49.94 46.88-103.71 100.84l-98.16 97.97v-58.17c0-64.68-.38-66.59-13.01-76.35-9.76-7.46-25.45-7.46-35.21 0-13.2 10.14-13.01 8.23-13.01 107.16v88.6l-61.24 61.22-61.23 61.24v-88.79c0-98.74.19-96.82-13.01-106.96-9.76-7.46-25.45-7.46-35.21 0-13.59 10.33-13.01 4.97-13.01 137.58v119.21l-29.47 29.85c-31.57 31.96-33.87 35.59-31 50.9 1.72 8.99 13.97 21.24 22.96 22.96 15.31 2.87 18.94.58 50.9-31l29.85-29.47h119.21c132.61 0 127.25.57 137.58-13.01 7.46-9.76 7.46-25.45 0-35.21-10.14-13.2-8.23-13.01-106.96-13.01h-88.79l61.24-61.23 61.23-61.23h88.59c98.93 0 97.01.19 107.16-13.01 7.46-9.76 7.46-25.45 0-35.21-9.76-12.63-11.67-13.01-76.35-13.01h-58.17l99.88-100.08c107.35-107.54 104.48-104.1 101.22-120.36-3.63-18.37-26.01-29.85-42.28-21.43z" fill="rgba(4, 142, 58, 1)" stroke="none"/>
</svg>
</g></svg></g></g>
<!-- /image 38196 -->

<!-- image 94614 -->
<g id="transformed-94614" data-image="94614" transform="translate(158.4124372368505, 159.41243723685054) rotate(58, 38.58756276314948, 38.587562763149464)"><g><svg version="1.1" width="77.17512552629896px" height="77.17512552629893px" viewBox="0 0 77.17512552629896 77.17512552629893"><g id="original-94614"><svg xmlns="http://www.w3.org/2000/svg" viewBox="0 0 1000 1000" xmlns:xlink="http://www.w3.org/1999/xlink" version="1.1" preserveAspectRatio="xMidYMid meet">
  <path d="M15.51 251.87c-6.34 6.12-7 17.5-3.06 57.09 16.4 169.3 120.08 318.25 274.29 394.59 183.73 90.99 402.68 55.78 551.86-88.37 85.74-83.12 137.8-189.86 148.96-306.22 3.94-39.59 3.28-50.96-3.06-57.09l-5.25-5.47H20.76l-5.25 5.47zm100.62 42c8.97 79.4 32.81 141.52 76.56 199.48 99.3 131.46 267.29 186.58 421.06 137.58 116.8-37.18 209.76-127.96 250.23-244.1 8.09-23.4 15.53-54.9 17.72-75.9.66-7.22 1.75-16.84 2.41-21.44l1.31-8.09h69.78l-1.31 14.66c-8.53 97.99-40.25 179.58-98.87 253.73-17.28 21.87-55.34 59.06-78.74 76.77-160.98 122.05-389.78 122.27-551.64.88-21.89-16.41-56.24-49.44-75.7-72.84-57.09-68.24-92.3-153.77-101.71-246.73-1.09-12.47-2.19-23.4-2.19-24.5s15.75-1.97 34.78-1.97h35l1.31 12.47zm330.28-4.16C421.69 313.99 232.71 489.2 231.4 489.2c-2.41-.22-20.56-25.59-33.03-46.15-24.94-41.78-41.34-93.18-47.03-147.86l-1.09-11.59 35.43-.44c19.47-.44 88.15-.88 152.46-1.31l117.02-.66-8.75 8.52zm402.25 4.16c-6.57 62.78-24.28 114.83-55.56 162.74-11.81 17.94-22.75 32.37-24.5 32.59-1.53 0-186.14-171.26-213.92-198.17l-9.84-9.62h305.13l-1.31 12.46zM482.5 459.67v154.2l-12.47-1.31c-71.74-7.44-131.02-30.4-184.39-71.09-8.97-6.78-19.25-15.53-22.97-19.25-6.34-6.78-6.34-7-2.19-10.94 12.69-12.25 220.7-205.82 221.35-205.82.45 0 .67 69.34.67 154.21zm146.55-51.4c54.68 50.96 103.02 95.8 107.18 99.74l7.44 7.44-6.34 6.78c-3.72 3.72-14 12.47-22.97 19.25-54.9 41.56-111.77 63.65-184.17 71.09l-12.68 1.31V304.59l6.12 5.47c3.27 3.06 50.74 47.24 105.42 98.21z" fill="rgba(149, 217, 90, 1)" stroke="none"/>
</svg>
</g></svg></g></g>
<!-- /image 94614 -->

<!-- image 93271 -->
<g id="transformed-93271" data-image="93271" transform="translate(86.60364385908613, 191.60364385908616) rotate(338, 49.39635614091387, 49.396356140913845)"><g><svg version="1.1" width="98.79271228182775px" height="98.79271228182769px" viewBox="0 0 98.79271228182775 98.79271228182769"><g id="original-93271"><svg xmlns="http://www.w3.org/2000/svg" viewBox="0 0 1000 1000" xmlns:xlink="http://www.w3.org/1999/xlink" version="1.1" preserveAspectRatio="xMidYMid meet">
  <path d="M601.07 11.29C549.09 17.3 502.93 44.46 462 93.33c-18.81 22.3-38.79 52.76-49.46 74.87-4.65 9.5-8.92 17.26-9.5 17.26-.78.19-1.94-5.62-2.72-12.61-5.24-49.27-23.08-99.5-40.73-115.02-7.37-6.4-12.22-7.37-19.01-3.68-11.64 6.01-12.03 16.1-1.55 30.26 16.87 22.31 28.12 69.24 33.17 138.1.97 14.35 1.94 29.48 1.94 33.36v7.37h-8.92c-11.83 0-46.16 5.04-66.72 9.89-95.43 22.3-180.77 82.24-233.72 164.28-12.03 18.81-30.26 57.21-37.44 78.94-28.51 86.5-21.53 185.81 18.43 265.53 77.39 154 254.28 236.82 426.32 199.58 29.29-6.4 31.61-6.4 61.68 0 169.52 36.27 345.63-51.98 420.3-210.44 56.63-120.45 45.77-262.82-28.71-374.15-23.66-35.11-32.78-42.67-44.22-36.08-2.33 1.36-34.91 28.12-72.35 59.54-37.63 31.42-68.85 57.41-69.82 57.8-.78.19-3.49-4.07-6.21-9.7-12.03-25.99-36.66-61.1-60.9-86.7-62.84-66.52-156.13-110.93-247.49-117.72-15.9-1.16-17.26-1.55-17.26-5.43 0-4.07 10.09-11.06 31.03-21.53 27.93-14.16 82.04-24.44 151.29-29.09 48.1-3.1 82.43-15.52 119.28-42.28 19.4-14.35 50.82-46.36 65.36-66.53 14.55-20.56 31.23-49.46 29.29-51.4-.78-.78-9.89-4.46-20.17-8.34-63.81-23.66-130.73-33.94-182.12-28.12zm87.28 36.85c24.63 4.07 65.36 14.74 67.11 17.46 1.55 2.52-22.5 32.97-39.18 49.46-24.83 25.21-49.85 41.12-79.52 51.01-14.55 4.85-24.05 6.59-52.37 8.92-67.69 5.63-103.96 11.64-132.86 21.34-7.76 2.72-14.74 4.85-15.71 4.85-2.13 0 12.03-27.93 23.66-46.94 34.72-55.66 74.67-91.35 117.34-104.15 28.32-8.55 68.27-9.32 111.53-1.95zm-314.21 276v27.93l6.21 5.24c6.98 6.01 15.32 5.62 21.92-.97 3.49-3.49 3.88-6.98 4.46-32.39l.78-28.32 15.71 1.36c21.72 1.75 58.77 9.5 81.07 16.68 24.05 7.95 64.39 27.74 86.12 42.48 35.88 24.05 68.08 56.25 92.32 92.32 13.37 19.78 29.47 50.62 27.92 53.33-.58.97-89.61 76.22-198.03 167-131.69 110.55-197.06 166.6-197.83 169.71-2.13 8.15.78 13 17.65 31.23 26.77 28.71 62.45 56.05 98.14 75.06l15.52 8.34-8.34 1.16c-33.75 5.04-84.37 3.1-120.83-4.46C144.69 914.35 26.37 759.37 44.61 593.35 58.96 462.81 152.83 351.68 282.4 311.92c27.15-8.34 60.9-14.74 82.62-15.32l9.12-.39v27.93zm523.68 90.77c75.45 112.69 78.75 262.03 7.95 375.89-51.4 82.82-130.92 138.1-228.29 159.04-27.35 6.01-86.5 7.57-116.38 3.1-70.6-10.28-131.5-38.98-185.03-86.89-11.25-10.09-20.37-19.2-20.37-20.37 0-.97 5.24-6.4 11.64-11.64l11.44-9.7 19.59 17.26c43.64 38.79 91.35 63.23 147.79 75.45 23.86 5.04 79.91 7.18 103.77 3.88 50.43-7.17 97.56-25.41 140.42-54.69 23.47-15.9 63.23-56.63 79.91-81.85 39.76-59.74 57.6-127.82 52.56-199.19-3.88-52.95-22.11-106.48-51.01-149.15l-10.86-16.49 7.18-5.82c4.07-3.3 9.5-7.95 12.22-10.28 2.72-2.33 5.24-4.27 5.82-4.46.59 0 5.83 7.18 11.65 15.91zm-45.58 51.98c8.15 14.16 20.95 40.73 19.98 41.7-.58.58-144.5 46.16-174.95 55.47-8.92 2.72-10.86 2.91-8.73.78 1.55-1.55 35.11-29.87 74.48-63.04l71.76-60.13 4.46 5.24c2.33 3.1 8.15 12.03 13 19.98zm31.81 80.88c7.56 26.77 7.56 90.19.39 121.22-4.27 18.62-14.74 49.84-17.46 52.56-1.16 1.16-35.69-15.91-88.83-43.25-47.71-24.83-87.08-45.39-87.47-45.58-.2-.2.19-7.57.97-16.49l1.55-16.1 93.1-29.68c51.21-16.1 93.68-29.48 94.46-29.68.77-.18 2.32 3.12 3.29 7zm-225.77 53.92c5.24 34.52-28.32 64.2-61.87 54.5-6.01-1.74-10.86-3.88-10.67-4.65 0-1.55 68.08-58.58 70.02-58.58.78 0 1.94 3.88 2.52 8.73zM786.88 720c34.33 17.84 62.45 33.55 62.45 34.72 0 4.85-20.37 31.42-37.82 49.46-23.08 23.86-45 40.15-75.45 55.47-13.58 6.98-25.21 12.41-25.79 12.03-2.13-2.33-60.32-190.46-58.96-191.05 3.88-1.36 19.4-14.55 20.37-17.26.97-2.33 6.21-.19 26.96 10.67 13.95 7.36 53.71 28.12 88.24 45.96zm-237.41-31.61c-11.83 23.66-82.82 159.82-83.98 160.98-1.75 1.94-33.56-21.33-47.91-35.11l-12.41-12.02 73.9-62.07c40.54-33.94 74.09-61.87 74.67-61.87.39 0-1.55 4.65-4.27 10.09zm68.86 4.65c1.16.97 59.74 187.94 59.16 188.72-2.33 2.91-30.45 6.4-57.99 7.37-27.93.77-36.46.39-56.25-2.91-21.34-3.69-54.11-13.19-64.39-18.62-3.88-2.13-2.71-4.85 41.7-89.99l45.77-87.67 15.52 1.16c8.72.78 16.09 1.55 16.48 1.94z" fill="rgba(149, 217, 90, 1)" stroke="none"/>
</svg>
</g></svg></g></g>
<!-- /image 93271 -->

<!-- image 29610 -->
<g id="transformed-29610" data-image="29610" transform="translate(189.06828780053874, 8.068287800538691) rotate(335, 21.93171219946127, 21.93171219946131)"><g><svg version="1.1" width="43.86342439892254px" height="43.86342439892262px" viewBox="0 0 43.86342439892254 43.86342439892262"><g id="original-29610"><svg xmlns="http://www.w3.org/2000/svg" viewBox="0 0 1000 1000" xmlns:xlink="http://www.w3.org/1999/xlink" version="1.1" preserveAspectRatio="xMidYMid meet">
  <path d="M551.81 12.11c-75.01 7.65-152.7 39.8-211.06 87.45-82.28 67.36-134.52 165.14-144.85 271.91-1.15 11.67-1.91 94.91-1.91 205.51v185.99l-90.7 90.89c-98.17 98.16-95.3 94.91-92.24 112.13 1.72 8.99 13.97 21.24 22.96 22.96 17.22 3.06 13.97 5.93 112.13-92.23l90.89-90.7h185.99c112.51 0 193.65-.77 205.51-1.91 67.17-6.7 129.54-28.7 184.27-65.44 43.05-28.7 83.05-69.08 111.37-111.94 35.59-54.15 57.41-115.96 63.91-182.17 1.15-12.06 1.91-99.89 1.91-227.13V10l-210.87.19c-116.14.19-218.32 1.15-227.31 1.92zm376.96 236.12c0 112.71-.77 183.89-2.1 195.75-8.62 79.41-42.68 149.07-100.47 205.32-55.11 53.58-121.7 84.96-198.81 93.57-10.33 1.15-88.79 1.91-194.79 1.91H255.02l.77-189.05c.77-205.7.38-197.28 12.06-238.61 33.29-118.06 129.54-209.91 248.56-237.47 33.49-7.65 43.63-8.04 231.15-8.23l181.21-.19v177z" fill="rgba(11, 171, 64, 1)" stroke="none"/>
  <path d="M824.48 135.53c-3.06 1.53-49.94 46.88-103.71 100.84l-98.16 97.97v-58.17c0-64.68-.38-66.59-13.01-76.35-9.76-7.46-25.45-7.46-35.21 0-13.2 10.14-13.01 8.23-13.01 107.16v88.6l-61.24 61.22-61.23 61.24v-88.79c0-98.74.19-96.82-13.01-106.96-9.76-7.46-25.45-7.46-35.21 0-13.59 10.33-13.01 4.97-13.01 137.58v119.21l-29.47 29.85c-31.57 31.96-33.87 35.59-31 50.9 1.72 8.99 13.97 21.24 22.96 22.96 15.31 2.87 18.94.58 50.9-31l29.85-29.47h119.21c132.61 0 127.25.57 137.58-13.01 7.46-9.76 7.46-25.45 0-35.21-10.14-13.2-8.23-13.01-106.96-13.01h-88.79l61.24-61.23 61.23-61.23h88.59c98.93 0 97.01.19 107.16-13.01 7.46-9.76 7.46-25.45 0-35.21-9.76-12.63-11.67-13.01-76.35-13.01h-58.17l99.88-100.08c107.35-107.54 104.48-104.1 101.22-120.36-3.63-18.37-26.01-29.85-42.28-21.43z" fill="rgba(4, 142, 58, 1)" stroke="none"/>
</svg>
</g></svg></g></g>
<!-- /image 29610 -->

<!-- image 95239 -->
<g id="transformed-95239" data-image="95239" transform="translate(-6.598206241955509, 183.40179375804448) rotate(42, 44.59820624195551, 44.598206241955516)"><g><svg version="1.1" width="89.19641248391102px" height="89.19641248391103px" viewBox="0 0 89.19641248391102 89.19641248391103"><g id="original-95239"><svg xmlns="http://www.w3.org/2000/svg" viewBox="0 0 1000 1000" xmlns:xlink="http://www.w3.org/1999/xlink" version="1.1" preserveAspectRatio="xMidYMid meet">
  <path d="M616.02 97.26c-29.89 12.67-46.33 45.14-38.8 76.42 2.57 10.49 2.57 10.49-3.17 14.65-10.49 7.72-41.18 34.05-57.81 49.69L500 253.27l-13.66-12.67c-77.61-73.25-157.79-124.92-212.83-137.2-23.16-5.15-50.09-3.56-65.14 3.96-29.7 14.85-42.37 42.96-40.39 90.08 1.78 39.4 14.25 85.33 38.21 139.97 5.94 13.66 10.49 25.34 10.1 25.74-.59.4-12.28 3.76-26.33 7.52-77.41 20.39-137.4 50.48-161.35 80.58C14.55 469.07 10 480.75 10 500.35c0 14.65.79 18.41 6.14 29.7 19.2 40.59 79.98 75.83 173.03 100.38 14.65 3.76 26.93 7.13 27.32 7.52.4.2-4.75 13.07-11.28 28.11-24.15 56.82-35.44 98-37.22 137.2-1.58 37.62 4.36 57.81 22.37 77.21 21.38 22.96 55.63 26.92 101.36 11.68 52.07-17.22 127.9-68.3 190.66-127.9 8.31-7.92 16.23-14.45 17.42-14.45 1.39 0 11.48 8.32 22.57 18.61s29.1 25.94 39.99 34.65l19.6 16.04.2 21.19c0 18.61.59 22.77 4.75 31.08 6.14 12.47 17.03 23.36 30.29 30.29 9.11 4.75 12.67 5.54 28.31 5.54 15.44 0 19.2-.79 28.9-5.35 5.94-2.97 12.87-7.52 15.24-10.1l4.36-4.55 17.22 5.94c15.64 5.34 20 5.94 43.16 5.94 24.15.2 26.33-.2 36.82-5.35 6.14-2.97 14.85-9.3 19.2-14.06 17.42-18.81 23.16-39.6 21.38-76.42-1.78-39.2-13.46-82.36-36.23-134.43-14.85-34.05-14.45-30.88-2.38-33.86 10.3-2.57 10.3-2.57 14.45 3.17 6.93 9.9 15.64 17.03 26.92 22.37 8.91 4.16 13.86 5.15 26.73 5.15 14.06 0 17.62-.79 29.1-6.53 23.56-11.48 36.03-31.48 36.23-58.4l.2-15.64 13.07-8.71c17.03-11.48 37.22-33.06 44.35-47.51 4.95-10.1 5.74-14.06 5.74-28.51 0-14.06-.79-18.61-5.15-27.72-20-42.37-78.6-76.62-174.82-101.96-14.06-3.76-25.93-7.13-26.33-7.72-.59-.4 2.57-8.71 6.93-18.41 41.97-93.64 52.86-168.08 30.69-209.07-18.61-34.05-59.59-43.95-111.07-26.73l-20.19 6.73-5.35-5.54c-15.41-16.23-46.69-21.97-68.66-12.67zm-344.88 36.23c46.92 11.68 127.1 64.15 192.24 125.91l15.05 14.25-29.1 31.28c-16.04 17.03-31.08 31.48-33.26 31.88-2.38.59-18.41 1.78-35.83 3.17-31.88 2.18-90.87 9.5-117.4 14.45-10.3 1.98-14.65 2.18-15.84.59-3.37-4.36-20.19-44.15-28.11-65.93-19.2-54.05-25.94-98.79-18.81-126.11 8.1-30.87 29.48-39.78 71.06-29.49zm507.81.2c30.69 15.64 31.48 72.86 2.18 155.41-7.92 21.78-24.75 61.57-28.11 65.93-1.19 1.58-5.35 1.39-15.24-.4-34.65-6.53-97.21-13.86-146.7-17.22-10.49-.59-11.48-1.19-20.79-11.48-5.54-5.94-18.81-19.8-29.5-31.08l-19.8-20.19 7.92-8.12c8.51-8.71 38.61-35.24 56.82-49.89l11.29-9.11 8.91 5.54c20.19 12.87 45.14 13.46 66.72 1.78 22.37-12.27 34.05-33.46 33.06-59.99-.2-7.13 0-13.27.39-13.66.6-.59 8.52-3.17 17.62-5.94 20.98-6.13 45.14-6.92 55.23-1.58zM519.6 314.45c9.9 10.69 18.02 19.6 18.02 19.8 0 .4-16.83.79-37.62.79-20.59 0-37.62-.2-37.62-.59 0-1.78 36.63-39.99 37.81-39.6.8.39 9.51 9.1 19.41 19.6zm38.21 50.88c8.91 1.39 9.9 2.38 27.32 23.16 20 23.76 58.6 74.84 74.05 97.41l9.7 14.45-9.11 13.66c-13.46 20.2-55.24 75.23-75.43 99.78-13.86 16.43-19.2 21.38-23.76 22.17-3.36.79-33.06.99-66.12.59l-59.99-.59-5.94-6.93c-30.69-36.62-66.72-83.35-86.32-112.25l-11.28-16.43 9.9-14.25c15.84-23.36 54.44-74.24 73.85-97.6 17.62-20.99 18.61-21.78 27.52-22.97 12.86-1.59 104.33-1.79 115.61-.2zm-173.63 13.66c-14.25 17.82-61.77 80.97-65.73 87.7-1.78 3.17-3.96 5.94-4.75 5.94-2.77 0-51.28-82.56-51.28-86.91 0-1.98 43.16-9.11 79.39-13.07 33.85-3.76 39.2-4.16 45.93-4.55l5.74-.4-9.3 11.29zm275.19-6.14c35.83 3.96 78.2 10.89 78.2 12.87 0 4.35-48.7 86.91-51.08 86.91-.79-.2-7.92-9.7-16.04-21.18-8.12-11.68-24.15-33.06-35.64-47.71-11.48-14.65-22.77-28.91-24.75-31.48l-3.76-4.95 13.66 1.39c7.54.59 25.36 2.57 39.41 4.15zm-412.78 45.73c8.12 15.05 22.57 39.6 31.88 54.64l17.03 27.32-17.42 28.11c-9.7 15.44-23.96 39.79-31.88 54.25-9.5 17.03-15.64 26.33-17.62 26.33-5.34 0-40.59-9.5-64.15-17.22-68.9-22.57-113.25-50.88-123.54-78.4-15.05-40.19 43.15-82.95 155.21-114.23 15.24-4.16 29.5-7.72 31.68-7.72 2.97 0 7.32 6.14 18.81 26.92zm557.11-19.2c69.49 19.2 116.41 41.77 141.56 68.1 11.68 12.67 16.04 21.38 16.04 32.87 0 16.63-9.11 30.09-32.47 47.71l-15.64 11.88-7.13-6.73c-13.26-12.87-22.57-16.24-43.75-16.24-15.04 0-20.59.79-27.91 4.16-20.59 9.7-34.65 28.71-37.02 50.88l-1.39 12.08-9.9 2.57c-17.42 4.36-16.43 5.15-32.67-24.55-8.12-14.65-22.57-39.2-31.87-54.25l-17.22-27.32 14.06-22.37c16.04-25.54 48.9-82.95 48.9-85.13-.02-2.97 7.11-1.58 36.41 6.34zM331.32 551.82c14.25 20.19 38.41 52.07 56.82 74.64l5.15 6.53h-5.54c-16.63 0-122.35-14.26-124.92-16.83-1.98-1.78 48.11-88.3 50.68-87.9.79.01 8.9 10.7 17.81 23.56zm372.2 2.38c20 33.46 34.85 60.98 33.46 62.17-2.18 2.38-76.03 12.47-115.03 15.84l-15.84 1.38 9.5-11.68c10.29-12.67 51.08-66.72 63.15-83.55 3.96-5.54 7.72-10.29 8.12-10.29.41 0 7.93 11.88 16.64 26.13zm-420.9 95.62c34.05 5.35 73.05 9.9 111.46 12.87l25.74 1.78 9.9 10.69c5.54 5.94 18.61 20.2 29.3 31.68l19.6 20.99-12.67 11.68c-68.5 64.15-136.21 109.48-187.68 126.11-12.67 4.16-20.99 5.54-33.66 5.74-18.41 0-24.55-2.18-34.05-12.08-16.83-17.62-17.62-57.02-2.38-113.04 10.49-38.41 36.43-101.37 41.58-101.37 1.38 0 16.23 2.18 32.86 4.95zm477.72 11.29c35.04 76.62 49.49 145.71 38.61 182.73-3.76 12.47-16.43 23.76-29.89 26.53-12.47 2.57-30.09.59-47.91-5.35l-10.29-3.37v-17.82c0-21.18-3.96-31.28-17.03-45.54-12.28-13.27-25.14-19.21-43.75-20.39-17.42-.99-28.31 1.98-41.97 11.29l-8.91 6.14-17.42-14.26c-19.6-15.84-29.5-24.55-47.71-41.77l-12.28-11.68 17.22-18.81c9.7-10.49 22.77-24.55 29.3-31.68l11.88-12.67 25.74-1.78c38.41-2.97 79.79-7.72 109.88-12.87 39.78-6.72 35.82-7.71 44.53 11.3zM519.8 686.45c-10.1 10.89-19.01 19.8-19.8 19.8s-9.7-8.91-19.8-19.8l-18.21-19.8h76.02l-18.21 19.8z" fill="rgba(215, 217, 33, 1)" stroke="none"/>
  <path d="M484.16 403.34c-42.76 7.72-74.84 40.59-81.37 83.35-9.9 63.95 48.51 121.56 112.45 110.87 64.14-10.89 100.77-79 74.04-137.4-15.24-33.66-45.34-54.44-83.35-57.41-7.12-.6-16.82-.4-21.77.59z" fill="rgba(215, 217, 33, 1)" stroke="none"/>
</svg>
</g></svg></g></g>
<!-- /image 95239 -->
</defs><rect x="0" y="0" width="250" height="250" fill="rgba(16, 66, 60, 1)"></rect><use xlink:href="#transformed-91346" transform="translate(-250, -250)"></use><use xlink:href="#transformed-91346" transform="translate(0, -250)"></use><use xlink:href="#transformed-91346" transform="translate(250, -250)"></use><use xlink:href="#transformed-91346" transform="translate(-250, 0)"></use><use xlink:href="#transformed-91346" transform="translate(0, 0)"></use><use xlink:href="#transformed-91346" transform="translate(250, 0)"></use><use xlink:href="#transformed-91346" transform="translate(-250, 250)"></use><use xlink:href="#transformed-91346" transform="translate(0, 250)"></use><use xlink:href="#transformed-91346" transform="translate(250, 250)"></use><use xlink:href="#transformed-63307" transform="translate(-250, -250)"></use><use xlink:href="#transformed-63307" transform="translate(0, -250)"></use><use xlink:href="#transformed-63307" transform="translate(250, -250)"></use><use xlink:href="#transformed-63307" transform="translate(-250, 0)"></use><use xlink:href="#transformed-63307" transform="translate(0, 0)"></use><use xlink:href="#transformed-63307" transform="translate(250, 0)"></use><use xlink:href="#transformed-63307" transform="translate(-250, 250)"></use><use xlink:href="#transformed-63307" transform="translate(0, 250)"></use><use xlink:href="#transformed-63307" transform="translate(250, 250)"></use><use xlink:href="#transformed-12172" transform="translate(-250, -250)"></use><use xlink:href="#transformed-12172" transform="translate(0, -250)"></use><use xlink:href="#transformed-12172" transform="translate(250, -250)"></use><use xlink:href="#transformed-12172" transform="translate(-250, 0)"></use><use xlink:href="#transformed-12172" transform="translate(0, 0)"></use><use xlink:href="#transformed-12172" transform="translate(250, 0)"></use><use xlink:href="#transformed-12172" transform="translate(-250, 250)"></use><use xlink:href="#transformed-12172" transform="translate(0, 250)"></use><use xlink:href="#transformed-12172" transform="translate(250, 250)"></use><use xlink:href="#transformed-48128" transform="translate(-250, -250)"></use><use xlink:href="#transformed-48128" transform="translate(0, -250)"></use><use xlink:href="#transformed-48128" transform="translate(250, -250)"></use><use xlink:href="#transformed-48128" transform="translate(-250, 0)"></use><use xlink:href="#transformed-48128" transform="translate(0, 0)"></use><use xlink:href="#transformed-48128" transform="translate(250, 0)"></use><use xlink:href="#transformed-48128" transform="translate(-250, 250)"></use><use xlink:href="#transformed-48128" transform="translate(0, 250)"></use><use xlink:href="#transformed-48128" transform="translate(250, 250)"></use><use xlink:href="#transformed-38196" transform="translate(-250, -250)"></use><use xlink:href="#transformed-38196" transform="translate(0, -250)"></use><use xlink:href="#transformed-38196" transform="translate(250, -250)"></use><use xlink:href="#transformed-38196" transform="translate(-250, 0)"></use><use xlink:href="#transformed-38196" transform="translate(0, 0)"></use><use xlink:href="#transformed-38196" transform="translate(250, 0)"></use><use xlink:href="#transformed-38196" transform="translate(-250, 250)"></use><use xlink:href="#transformed-38196" transform="translate(0, 250)"></use><use xlink:href="#transformed-38196" transform="translate(250, 250)"></use><use xlink:href="#transformed-94614" transform="translate(-250, -250)"></use><use xlink:href="#transformed-94614" transform="translate(0, -250)"></use><use xlink:href="#transformed-94614" transform="translate(250, -250)"></use><use xlink:href="#transformed-94614" transform="translate(-250, 0)"></use><use xlink:href="#transformed-94614" transform="translate(0, 0)"></use><use xlink:href="#transformed-94614" transform="translate(250, 0)"></use><use xlink:href="#transformed-94614" transform="translate(-250, 250)"></use><use xlink:href="#transformed-94614" transform="translate(0, 250)"></use><use xlink:href="#transformed-94614" transform="translate(250, 250)"></use><use xlink:href="#transformed-93271" transform="translate(-250, -250)"></use><use xlink:href="#transformed-93271" transform="translate(0, -250)"></use><use xlink:href="#transformed-93271" transform="translate(250, -250)"></use><use xlink:href="#transformed-93271" transform="translate(-250, 0)"></use><use xlink:href="#transformed-93271" transform="translate(0, 0)"></use><use xlink:href="#transformed-93271" transform="translate(250, 0)"></use><use xlink:href="#transformed-93271" transform="translate(-250, 250)"></use><use xlink:href="#transformed-93271" transform="translate(0, 250)"></use><use xlink:href="#transformed-93271" transform="translate(250, 250)"></use><use xlink:href="#transformed-29610" transform="translate(-250, -250)"></use><use xlink:href="#transformed-29610" transform="translate(0, -250)"></use><use xlink:href="#transformed-29610" transform="translate(250, -250)"></use><use xlink:href="#transformed-29610" transform="translate(-250, 0)"></use><use xlink:href="#transformed-29610" transform="translate(0, 0)"></use><use xlink:href="#transformed-29610" transform="translate(250, 0)"></use><use xlink:href="#transformed-29610" transform="translate(-250, 250)"></use><use xlink:href="#transformed-29610" transform="translate(0, 250)"></use><use xlink:href="#transformed-29610" transform="translate(250, 250)"></use><use xlink:href="#transformed-95239" transform="translate(-250, -250)"></use><use xlink:href="#transformed-95239" transform="translate(0, -250)"></use><use xlink:href="#transformed-95239" transform="translate(250, -250)"></use><use xlink:href="#transformed-95239" transform="translate(-250, 0)"></use><use xlink:href="#transformed-95239" transform="translate(0, 0)"></use><use xlink:href="#transformed-95239" transform="translate(250, 0)"></use><use xlink:href="#transformed-95239" transform="translate(-250, 250)"></use><use xlink:href="#transformed-95239" transform="translate(0, 250)"></use><use xlink:href="#transformed-95239" transform="translate(250, 250)"></use></svg>